<?xml version="1.0" encoding="UTF-8" standalone="no"?>
<!-- Created with Inkscape (http://www.inkscape.org/) -->

<svg
   width="202pt"
   height="202pt"
   viewBox="0 0 71.26111 71.261111"
   version="1.1"
   id="svg5"
   xml:space="preserve"
   inkscape:version="1.2 (dc2aedaf03, 2022-05-15)"
   sodipodi:docname="logo.svg"
   xmlns:inkscape="http://www.inkscape.org/namespaces/inkscape"
   xmlns:sodipodi="http://sodipodi.sourceforge.net/DTD/sodipodi-0.dtd"
   xmlns:xlink="http://www.w3.org/1999/xlink"
   xmlns="http://www.w3.org/2000/svg"
   xmlns:svg="http://www.w3.org/2000/svg"><sodipodi:namedview
     id="namedview7"
     pagecolor="#ffffff"
     bordercolor="#666666"
     borderopacity="1.0"
     inkscape:showpageshadow="2"
     inkscape:pageopacity="0.0"
     inkscape:pagecheckerboard="0"
     inkscape:deskcolor="#d1d1d1"
     inkscape:document-units="mm"
     showgrid="false"
     inkscape:zoom="3.3638608"
     inkscape:cx="240.20019"
     inkscape:cy="181.33925"
     inkscape:window-width="3840"
     inkscape:window-height="2095"
     inkscape:window-x="0"
     inkscape:window-y="0"
     inkscape:window-maximized="1"
     inkscape:current-layer="layer1" /><defs
     id="defs2"><linearGradient
       id="linearGradient8385"><stop
         id="stop8387"
         style="stop-color:#000000;stop-opacity:1"
         offset="0" /><stop
         id="stop8389"
         style="stop-color:#ffffff;stop-opacity:1"
         offset="1" /></linearGradient><linearGradient
       x1="-564.26062"
       y1="535.61951"
       x2="-578.36444"
       y2="376.52051"
       id="linearGradient3001"
       xlink:href="#linearGradient8385"
       gradientUnits="userSpaceOnUse"
       gradientTransform="matrix(0.99884,0,0,0.998699,959.00774,43.642085)" /><linearGradient
       x1="-642.33075"
       y1="395.76303"
       x2="-570.35742"
       y2="537.68951"
       id="linearGradient3004"
       xlink:href="#linearGradient8385"
       gradientUnits="userSpaceOnUse"
       gradientTransform="matrix(0.99884,0,0,0.998699,959.00774,43.642085)" /><linearGradient
       x1="0"
       y1="0"
       x2="1"
       y2="0"
       gradientUnits="userSpaceOnUse"
       gradientTransform="matrix(0,-202.00009,202.00009,0,589.21399,876.80712)"
       spreadMethod="pad"
       id="linearGradient243"><stop
         style="stop-opacity:1;stop-color:#158f48"
         offset="0"
         id="stop239" /><stop
         style="stop-opacity:1;stop-color:#0f6733"
         offset="1"
         id="stop241" /></linearGradient><linearGradient
       x1="-642.33075"
       y1="395.76303"
       x2="-570.35742"
       y2="537.68951"
       id="linearGradient3004-6"
       xlink:href="#linearGradient8385"
       gradientUnits="userSpaceOnUse"
       gradientTransform="matrix(0.99884,0,0,0.998699,959.00774,43.642085)" /><linearGradient
       x1="-564.26062"
       y1="535.61951"
       x2="-578.36444"
       y2="376.52051"
       id="linearGradient3001-3"
       xlink:href="#linearGradient8385"
       gradientUnits="userSpaceOnUse"
       gradientTransform="matrix(0.99884,0,0,0.998699,959.00774,43.642085)" /><linearGradient
       x1="-642.33075"
       y1="395.76303"
       x2="-570.35742"
       y2="537.68951"
       id="linearGradient3004-6-9"
       xlink:href="#linearGradient8385"
       gradientUnits="userSpaceOnUse"
       gradientTransform="matrix(0.99884,0,0,0.998699,959.00774,43.642085)" /><linearGradient
       x1="-564.26062"
       y1="535.61951"
       x2="-578.36444"
       y2="376.52051"
       id="linearGradient3001-3-7"
       xlink:href="#linearGradient8385"
       gradientUnits="userSpaceOnUse"
       gradientTransform="matrix(0.99884,0,0,0.998699,959.00774,43.642085)" /><linearGradient
       inkscape:collect="always"
       xlink:href="#linearGradient243"
       id="linearGradient675"
       gradientUnits="userSpaceOnUse"
       gradientTransform="matrix(0,71.261492,71.260862,0,35.630429,-2.0888889e-4)"
       x1="0"
       y1="0"
       x2="1"
       y2="0"
       spreadMethod="pad" /></defs><g
     inkscape:label="Layer 1"
     inkscape:groupmode="layer"
     id="layer1"><path
       id="path245-2-6"
       style="fill:url(#linearGradient675);stroke:none;stroke-width:0.352778"
       d="M 15.542661,1.1111111e-6 C 6.958913,1.1111111e-6 0,6.9582611 0,15.542801 v 16.75616 6.66319 16.75616 c 0,8.58454 6.958913,15.5428 15.542661,15.5428 h 40.175158 c 8.58446,0 15.54318,-6.95826 15.54318,-15.5428 V 42.813101 28.448011 15.542801 C 71.260999,6.9582611 64.302279,1.1111111e-6 55.717819,1.1111111e-6 Z" /><g
       transform="matrix(0.32934329,0,0,0.33230574,-79.63965,-134.67143)"
       id="layer1-3"><path
         d="m 349.8646,551.58541 c 35.39768,48.25534 70.03957,-13.46852 69.98868,-50.58675 -0.0602,-43.88605 -44.54091,-68.41369 -70.01768,-68.41369 -40.89242,0 -79.8356,33.79608 -79.8356,80.03589 0,51.396 44.64038,79.86497 79.8356,79.86497 -7.96447,-1.14675 -34.5062,-6.83395 -34.86292,-67.96677 -0.23987,-41.3466 13.48757,-57.86551 34.80527,-50.59905 0.47743,0.17707 23.51392,9.26451 23.51392,38.95053 0,29.55992 -23.42727,38.71487 -23.42727,38.71487 z"
         id="path7508"
         style="color:#000000;display:inline;overflow:visible;visibility:visible;fill:url(#linearGradient3004-6);fill-opacity:1;fill-rule:evenodd;stroke:none;stroke-width:0.5;marker:none" /><path
         d="m 349.82327,473.88665 c -23.39005,-8.06188 -52.04302,11.21581 -52.04302,49.82881 0,63.04798 46.72055,68.77037 52.38416,68.77037 40.89242,0 79.83559,-33.79608 79.83559,-80.03589 0,-51.396 -44.64038,-79.86497 -79.83559,-79.86497 9.74811,-1.35 52.54087,10.54991 52.54087,69.0368 0,38.14117 -31.95286,58.90496 -52.73547,50.03344 -0.47743,-0.17707 -23.51392,-9.26451 -23.51392,-38.95053 0,-29.55992 23.36738,-38.81803 23.36738,-38.81803 z"
         id="path7510"
         style="color:#000000;display:inline;overflow:visible;visibility:visible;fill:url(#linearGradient3001-3);fill-opacity:1;fill-rule:evenodd;stroke:none;stroke-width:0.5;marker:none" /></g></g></svg>
